<?xml version="1.0" encoding="utf-8"?>
<!-- Generator: Adobe Illustrator 22.1.0, SVG Export Plug-In . SVG Version: 6.00 Build 0)  -->
<svg version="1.1" baseProfile="tiny" id="Layer_1" xmlns="http://www.w3.org/2000/svg" xmlns:xlink="http://www.w3.org/1999/xlink"
	 x="0px" y="0px" viewBox="0 0 720 720" xml:space="preserve">
<rect x="81" fill="#FFFFFF" width="558" height="720"/>
<g>
	<path d="M263.4,54.7h63.9L236.5,573h-19.9L129.9,54.7h59.6L218,275.5l13.5,142h7.8L263.4,54.7z"/>
	<path d="M309,54.7h75.3v36.2H309V54.7z M321.7,147v426h49.7V147H321.7z"/>
	<path d="M576,228.6c-41.2-58.9-66-68.9-99.4-69.6v8.5c39.1,5,66,31.2,66,76.7v153.4c0,66.7-35.5,92.3-77.4,92.3
		c-12.1,0-22.7-1.4-31.2-5.7c-12.1,11.4-22,23.4-22,30.5c0,6.4,4.3,9.9,17.8,9.9H505c44,0,64.6,14.9,64.6,44
		c0,37.6-68.2,96.6-127.1,96.6c-42.6,0-59.6-22-59.6-43.3c0-25.6,15.6-41.9,34.8-50.4v-4.3c-16.3-4.3-27.7-13.5-27.7-32
		c0-24.1,20.6-41.9,32.7-56.8c-17-12.8-26.3-35.5-26.3-71.7v-164c0-69.6,35.5-95.9,77.4-95.9H576V228.6z M505,573h-67.5
		c-11.4,5.7-14.9,12.8-14.9,20.6c0,14.2,10.7,26.3,66,26.3c32.7,0,46.2-5.7,46.2-19.9C534.8,583,529.1,573,505,573z M492.9,254.2
		c0-51.1-13.5-58.9-27.7-58.9c-15.6,0-19.2,15.6-19.2,40.5v152.7c0,51.1,12.8,58.9,27.7,58.9c15.6,0,19.2-15.6,19.2-40.5V254.2z"/>
</g>
</svg>
